# xmcd
#
# Track frame offsets: 
#        150
#        20952
#        42880
#        66732
#        96255
#        117970
#        134257
#        157065
#        171807
#        196117
#
# Disc length: 2790 seconds
#
# Revision: 2
# Processed by: cddbd v1.5.1PL2 Copyright (c) Steve Scherf et al.
# Submitted via: ExactAudioCopy v0.95b3
#
DISCID=910ae40a
DTITLE=Too Slim And The Taildraggers - El Rauncho Grundgé
DYEAR=1992
DGENRE=Rock
TTITLE0=Western Man
TTITLE1=Bone Of Contention
TTITLE2=Shake'em On Down
TTITLE3=Sick And Tired Of Being Sick And Tired
TTITLE4=El Rauncho Grundgé
TTITLE5=If You Ain't Rockin You Ain't Livin
TTITLE6=Lowdown Hoedown
TTITLE7=Good Love Charm
TTITLE8=These Boots Are Made For Walking
TTITLE9=Sonic Boom
EXTD=
EXTT0=
EXTT1=
EXTT2=
EXTT3=
EXTT4=
EXTT5=
EXTT6=
EXTT7=
EXTT8=
EXTT9=
PLAYORDER=
